<?xml version="1.0" encoding="UTF-8" standalone="no"?>
<svg
   xmlns:dc="http://purl.org/dc/elements/1.1/"
   xmlns:cc="http://creativecommons.org/ns#"
   xmlns:rdf="http://www.w3.org/1999/02/22-rdf-syntax-ns#"
   xmlns:svg="http://www.w3.org/2000/svg"
   xmlns="http://www.w3.org/2000/svg"
   xmlns:sodipodi="http://sodipodi.sourceforge.net/DTD/sodipodi-0.dtd"
   xmlns:inkscape="http://www.inkscape.org/namespaces/inkscape"
   width="7"
   height="12"
   viewBox="0 0 7 12"
   fill="none"
   version="1.1"
   id="svg4"
   sodipodi:docname="Next.svg"
   inkscape:version="1.0 (4035a4fb49, 2020-05-01)">
  <metadata
     id="metadata10">
    <rdf:RDF>
      <cc:Work
         rdf:about="">
        <dc:format>image/svg+xml</dc:format>
        <dc:type
           rdf:resource="http://purl.org/dc/dcmitype/StillImage" />
      </cc:Work>
    </rdf:RDF>
  </metadata>
  <defs
     id="defs8" />
  <sodipodi:namedview
     inkscape:document-rotation="0"
     pagecolor="#ffffff"
     bordercolor="#666666"
     borderopacity="1"
     objecttolerance="10"
     gridtolerance="10"
     guidetolerance="10"
     inkscape:pageopacity="0"
     inkscape:pageshadow="2"
     inkscape:window-width="960"
     inkscape:window-height="480"
     id="namedview6"
     showgrid="false"
     inkscape:zoom="61.25"
     inkscape:cx="3.5"
     inkscape:cy="6"
     inkscape:window-x="0"
     inkscape:window-y="0"
     inkscape:window-maximized="0"
     inkscape:current-layer="svg4" />
  <path
     fill-rule="evenodd"
     clip-rule="evenodd"
     d="M6.68799 5.3035C6.88777 5.48824 7 5.73877 7 6C7 6.26123 6.88777 6.51176 6.68799 6.6965L1.79343 11.2213C1.59491 11.4011 1.32763 11.5013 1.04967 11.5C0.771718 11.4987 0.505548 11.396 0.309002 11.2143C0.112456 11.0326 0.00141732 10.7866 1.3474e-05 10.5296C-0.00139037 10.2727 0.106955 10.0256 0.301505 9.84207L4.45757 6L0.301505 2.15793C0.106955 1.97441 -0.00139037 1.72732 1.3474e-05 1.47037C0.00141732 1.21341 0.112456 0.967353 0.309002 0.785657C0.505548 0.60396 0.771718 0.50131 1.04967 0.500012C1.32763 0.498715 1.59491 0.598874 1.79343 0.778726L6.68799 5.3035Z"
     fill="#0044CC"
     id="path2"
     style="fill:#000000" />
</svg>
